<?xml version="1.0" encoding="UTF-8" standalone="no"?>
<!DOCTYPE svg PUBLIC "-//W3C//DTD SVG 1.1//EN" "http://www.w3.org/Graphics/SVG/1.1/DTD/svg11.dtd">
<svg width="100%" height="100%" viewBox="0 0 2230 1530" version="1.1" xmlns="http://www.w3.org/2000/svg" xmlns:xlink="http://www.w3.org/1999/xlink" xml:space="preserve" xmlns:serif="http://www.serif.com/" style="fill-rule:evenodd;clip-rule:evenodd;stroke-linecap:round;stroke-linejoin:round;stroke-miterlimit:1.5;">
    <g id="Head-Curve" serif:id="Head Curve" transform="matrix(1.82949,0,0,1.82949,-547.115,-815.842)">
        <path d="M305.181,1277.82C305.181,1277.82 483.78,1240.29 500.427,911.81C515.497,614.452 701.055,485.158 848.977,483.157C1025.83,480.765 1103.05,597.328 1114.97,701.688C1130.48,837.393 1056.59,857.289 1046.54,1001.98C1039.99,1096.22 1055.78,1176.13 1086.55,1231.72" style="fill:url(#_Radial1);"/>
        <path d="M305.181,1277.82C305.181,1277.82 380.718,1266.45 443.693,1170.22C456.937,1149.98 469.492,1126 480.421,1097.55C498.874,1049.51 512.25,988.797 517.987,912.7C526.189,794.485 561.984,704.677 610.893,639.633C641.875,598.43 678.216,567.472 716.367,545.842C760.243,520.967 806.422,508.386 849.31,507.799C920.362,506.359 974.029,525.589 1012.83,556.112C1062,594.791 1087.37,651.017 1094.09,704.074C1098.74,739.417 1096.85,766.309 1091.31,789.749C1086.33,810.84 1078.43,829.118 1070.49,848.271C1054.02,887.957 1036.54,930.596 1034.46,1001.14C1033.59,1044.55 1037.02,1084.64 1044.44,1120.75C1053.4,1164.38 1067.86,1201.8 1086.55,1231.72C1071.38,1200.52 1061.21,1162.43 1056.83,1118.86C1053.26,1083.4 1053.63,1044.51 1058.61,1002.82C1065.8,937.283 1086.16,899.307 1103.68,863.197C1113.69,842.577 1122.6,822.454 1128.94,799.354C1136.4,772.179 1139.88,740.815 1135.86,699.302C1129.36,635.43 1100.2,567.213 1042.07,519.665C996.602,482.48 933.191,457.941 848.643,458.515C798.087,459.191 743.289,473.24 691.838,503.032C648.512,528.12 607.371,564.194 573.328,612.199C522.389,684.032 486.969,782.759 482.866,910.92C480.97,983.778 470.318,1042.07 455.797,1089.02C447.284,1116.55 437.602,1140.15 426.994,1160.41C375.537,1258.69 305.181,1277.82 305.181,1277.82Z"/>
    </g>
    <g transform="matrix(1.4004,-0.0477018,0.0494388,1.45139,569.972,-544.141)">
        <circle cx="889.723" cy="674.569" r="235.277" style="fill:none;stroke:black;stroke-width:66.58px;"/>
    </g>
    <g id="Beak" transform="matrix(1.82949,0,0,1.82949,-569.469,-790.202)">
        <path id="Beak-Fill" serif:id="Beak Fill" d="M1100.3,672.094C1127.35,675.59 1186.26,738.933 1171.37,748.355C1212.12,789.429 1259.53,871.07 1254.42,885.62L1245.36,881.259C1237.13,896.919 1186.31,863.896 1088.3,857.832C1076.17,852.132 1056.69,846.351 1043.02,834.858C1026.16,811.732 1016.64,778.656 1021.06,752.301C1048.72,732.721 1084.06,706.374 1100.3,672.094Z" style="fill:rgb(136,155,158);"/>
        <g id="Beak-Lines" serif:id="Beak Lines" transform="matrix(1.266,0,0,1.266,-275.988,-190.106)">
            <path d="M1201.57,846.939C1192.19,858.214 1146.34,832.763 1074.6,829.479" style="fill:none;stroke:black;stroke-width:12.95px;"/>
            <path d="M1142.46,741.551C1178.04,774.202 1215.77,846.195 1208.41,850.091C1163.83,825.444 1109.68,809.036 1044.52,808.643" style="fill:none;stroke:black;stroke-width:12.95px;"/>
            <path d="M1085.7,682.918C1094.62,671.789 1160.33,736.191 1142.53,741.071C1077.41,712.866 1044.64,757.082 1027.34,743.748C1040.3,735.934 1072.56,711.151 1085.7,682.918Z" style="fill:none;stroke:black;stroke-width:12.95px;"/>
        </g>
    </g>
    <g id="Eye" transform="matrix(1.82949,0,0,1.82949,-547.115,-815.842)">
        <path id="Eyelid" d="M806.191,843.543C838.068,829.749 885.832,811.418 913.283,797.183C962.981,771.412 968.78,716.159 950.434,679.401C929.244,636.943 886.857,617.103 832.361,629.424C792.804,638.367 751.719,675.623 749.338,725.325C748.019,752.854 745.675,778.771 744.128,801.311C741.605,838.069 769.814,859.284 806.191,843.543Z" style="fill:rgb(229,231,194);"/>
        <g id="Eye1" serif:id="Eye" transform="matrix(1.08742,-0.427784,0.374967,0.95316,-350.004,400.321)">
            <circle cx="859.377" cy="723.175" r="69.47"/>
        </g>
    </g>
    <g transform="matrix(1.82949,0,0,1.82949,-585.534,-801.206)">
        <path d="M1053.68,750.363C1093.91,675.812 1127.88,667.467 1158.29,695.833" style="fill:none;stroke:black;stroke-width:41px;stroke-linecap:butt;"/>
    </g>
    <g transform="matrix(1.56215,-0.166668,0.154067,1.44404,-522.168,-281.741)">
        <circle cx="889.723" cy="674.569" r="235.277" style="fill:none;stroke:black;stroke-width:62.8px;"/>
    </g>
    <defs>
        <radialGradient id="_Radial1" cx="0" cy="0" r="1" gradientUnits="userSpaceOnUse" gradientTransform="matrix(-375.948,438.194,-438.194,-375.948,986.484,657.757)"><stop offset="0" style="stop-color:rgb(61,86,118);stop-opacity:1"/><stop offset="0.43" style="stop-color:rgb(59,84,116);stop-opacity:0.95"/><stop offset="0.92" style="stop-color:rgb(23,46,76);stop-opacity:0"/><stop offset="1" style="stop-color:rgb(20,43,73);stop-opacity:0"/></radialGradient>
    </defs>
</svg>
