<svg aria-hidden="true" style="position: absolute; width: 0; height: 0; overflow: hidden;" version="1.1" xmlns="http://www.w3.org/2000/svg" xmlns:xlink="http://www.w3.org/1999/xlink">
<defs>
<symbol id="icon-link" viewBox="0 0 32 32">
<path d="M25.33 9.84l-3.5 6.062c-0.553 0.956-1.775 1.284-2.732 0.731l-0.865-0.5 1-1.731c0.478 0.275 1.090 0.112 1.365-0.366l2.5-4.33c0.276-0.479 0.112-1.090-0.365-1.366l-3.465-2c-0.479-0.276-1.090-0.112-1.365 0.366l-2.5 4.33c-0.277 0.479-0.113 1.090 0.365 1.366l-1 1.731-0.865-0.5c-0.957-0.552-1.285-1.775-0.732-2.731l3.5-6.062c0.553-0.957 1.775-1.284 2.732-0.732l5.195 3c0.957 0.552 1.285 1.775 0.732 2.732zM13.5 20.33c-0.479-0.276-0.643-0.888-0.366-1.366l4-6.928c0.276-0.479 0.888-0.643 1.366-0.366s0.643 0.888 0.365 1.366l-4 6.928c-0.275 0.478-0.886 0.641-1.365 0.366zM12.768 17.599v0c-0.479-0.276-1.090-0.112-1.366 0.365l-2.5 4.33c-0.276 0.479-0.112 1.090 0.366 1.366l3.465 2c0.478 0.276 1.090 0.112 1.365-0.366l2.5-4.33c0.276-0.478 0.112-1.090-0.365-1.366v0l1-1.731 0.865 0.5c0.957 0.552 1.285 1.774 0.732 2.731l-3.5 6.062c-0.553 0.957-1.775 1.284-2.732 0.732l-5.196-3c-0.957-0.553-1.285-1.775-0.732-2.732l3.5-6.062c0.553-0.957 1.776-1.285 2.733-0.732l0.865 0.5-1 1.733z"></path>
</symbol>
<symbol id="icon-file-add" viewBox="0 0 32 32">
<path d="M20.938 4.031h-13.938v23.938h10v-2h-8v-19.938h10v3h4v11h2v-12.062l-4.062-3.938zM23 22.031h-2v2h-2v2h2v1.938h2v-2h2v-1.938h-2v-2z"></path>
</symbol>
<symbol id="icon-file-remove" viewBox="0 0 32 32">
<path d="M20.938 4.031h-13.938v23.938h10v-2h-8v-19.938h10v3h4v11h2v-12.062l-4.062-3.938zM19 25.031l6-0.062v-1.938h-6v2z"></path>
</symbol>
<symbol id="icon-checkmark-in-circle" viewBox="0 0 32 32">
<path d="M21.82 13.030l-1.002-1.002c-0.185-0.185-0.484-0.185-0.668 0l-6.014 6.013-2.859-2.882c-0.186-0.185-0.484-0.185-0.67 0l-1.002 1.003c-0.185 0.185-0.185 0.484 0 0.668l4.193 4.223c0.185 0.184 0.484 0.184 0.668 0l7.354-7.354c0.186-0.185 0.186-0.484 0-0.669zM16 3c-7.18 0-13 5.82-13 13s5.82 13 13 13 13-5.82 13-13-5.82-13-13-13zM16 26c-5.522 0-10-4.478-10-10 0-5.523 4.478-10 10-10 5.523 0 10 4.477 10 10 0 5.522-4.477 10-10 10z"></path>
</symbol>
<symbol id="icon-cancel-in-circle" viewBox="0 0 32 32">
<path d="M16 29c-7.18 0-13-5.82-13-13s5.82-13 13-13 13 5.82 13 13-5.82 13-13 13zM16 6c-5.522 0-10 4.478-10 10s4.478 10 10 10c5.523 0 10-4.478 10-10s-4.477-10-10-10zM20.537 19.535l-1.014 1.014c-0.186 0.186-0.488 0.186-0.675 0l-2.87-2.87-2.87 2.87c-0.187 0.186-0.488 0.186-0.675 0l-1.014-1.014c-0.186-0.186-0.186-0.488 0-0.675l2.871-2.869-2.871-2.87c-0.186-0.187-0.186-0.489 0-0.676l1.014-1.013c0.187-0.187 0.488-0.187 0.675 0l2.87 2.87 2.87-2.87c0.187-0.187 0.489-0.187 0.675 0l1.014 1.013c0.186 0.187 0.186 0.489 0 0.676l-2.871 2.87 2.871 2.869c0.186 0.187 0.186 0.49 0 0.675z"></path>
</symbol>
<symbol id="icon-plus-in-circle" viewBox="0 0 32 32">
<path d="M16 29c-7.18 0-13-5.82-13-13s5.82-13 13-13 13 5.82 13 13-5.82 13-13 13zM16 6c-5.522 0-10 4.477-10 10 0 5.522 4.478 10 10 10 5.523 0 10-4.478 10-10 0-5.523-4.477-10-10-10zM19.988 17h-3v3c0 0.553-0.448 1-1 1-0.553 0-1-0.447-1-1v-3h-3c-0.553 0-1-0.448-1-1s0.447-1 1-1h3v-3c0-0.553 0.447-1 1-1 0.552 0 1 0.447 1 1v3h3c0.552 0 1 0.448 1 1s-0.448 1-1 1z"></path>
</symbol>
<symbol id="icon-minus-in-circle" viewBox="0 0 32 32">
<path d="M16 3c-7.18 0-13 5.82-13 13s5.82 13 13 13 13-5.82 13-13-5.82-13-13-13zM16 26c-5.522 0-10-4.478-10-10 0-5.523 4.478-10 10-10 5.523 0 10 4.477 10 10 0 5.522-4.477 10-10 10zM19.738 15h-8c-0.553 0-1 0.448-1 1 0 0.553 0.447 1 1 1h8c0.553 0 1-0.447 1-1 0-0.552-0.447-1-1-1z"></path>
</symbol>
<symbol id="icon-notice-in-circle" viewBox="0 0 32 32">
<path d="M15.5 3c-7.456 0-13.5 6.044-13.5 13.5s6.044 13.5 13.5 13.5 13.5-6.044 13.5-13.5-6.044-13.5-13.5-13.5zM15.5 27c-5.799 0-10.5-4.701-10.5-10.5s4.701-10.5 10.5-10.5 10.5 4.701 10.5 10.5-4.701 10.5-10.5 10.5zM15.5 10c-0.828 0-1.5 0.671-1.5 1.5v5.062c0 0.828 0.672 1.5 1.5 1.5s1.5-0.672 1.5-1.5v-5.062c0-0.829-0.672-1.5-1.5-1.5zM15.5 20c-0.828 0-1.5 0.672-1.5 1.5s0.672 1.5 1.5 1.5 1.5-0.672 1.5-1.5-0.672-1.5-1.5-1.5z"></path>
</symbol>
<symbol id="icon-cassette" viewBox="0 0 32 32">
<path d="M28.017 28.016h-2.065l-2.002-6.008h-16.961l-2.003 6.008h-2.003c-1.658 0-3.004-1.346-3.004-3.004v-18.024c0-1.659 1.346-3.003 3.004-3.003h25.033c1.659 0 3.004 1.345 3.004 3.003v18.024c0.001 1.658-1.344 3.004-3.003 3.004zM27.954 6.988h-24.971v13.017h24.971v-13.017zM26.014 18.002h-21.028v-9.011h21.027v9.011zM9.488 10.977c-1.383 0-2.503 1.121-2.503 2.503s1.12 2.503 2.503 2.503 2.504-1.121 2.504-2.503-1.121-2.503-2.504-2.503zM16.939 12.496h-2.941v2.002h2.941v-2.002zM21.513 10.977c-1.383 0-2.503 1.121-2.503 2.503s1.12 2.503 2.503 2.503c1.382 0 2.503-1.121 2.503-2.503s-1.121-2.503-2.503-2.503zM21.445 14.498c-0.553 0-1.001-0.448-1.001-1.001s0.448-1.001 1.001-1.001 1.002 0.448 1.002 1.001c0 0.553-0.449 1.001-1.002 1.001zM9.555 14.498c-0.553 0-1.001-0.448-1.001-1.001s0.448-1.001 1.001-1.001c0.554 0 1.002 0.448 1.002 1.001s-0.449 1.001-1.002 1.001zM23.26 23.009l1.753 4.965h-19.088l1.689-4.965h15.646zM22.009 26.013h1.001v-1.001h-1.001v1.001zM20.006 26.013h1.002v-1.001h-1.002v1.001zM12.997 26.013h4.944v-1.001h-4.944v1.001zM9.993 26.013h1.001v-1.001h-1.001v1.001zM7.99 26.013h1.001v-1.001h-1.001v1.001z"></path>
</symbol>
<symbol id="icon-checkmark" viewBox="0 0 32 32">
<path d="M28.998 8.531l-2.134-2.134c-0.394-0.393-1.030-0.393-1.423 0l-12.795 12.795-6.086-6.13c-0.393-0.393-1.029-0.393-1.423 0l-2.134 2.134c-0.393 0.394-0.393 1.030 0 1.423l8.924 8.984c0.393 0.393 1.030 0.393 1.423 0l15.648-15.649c0.393-0.392 0.393-1.030 0-1.423z"></path>
</symbol>
<symbol id="icon-cancel" viewBox="0 0 32 32">
<path d="M19.587 16.001l6.096 6.096c0.396 0.396 0.396 1.039 0 1.435l-2.151 2.151c-0.396 0.396-1.038 0.396-1.435 0l-6.097-6.096-6.097 6.096c-0.396 0.396-1.038 0.396-1.434 0l-2.152-2.151c-0.396-0.396-0.396-1.038 0-1.435l6.097-6.096-6.097-6.097c-0.396-0.396-0.396-1.039 0-1.435l2.153-2.151c0.396-0.396 1.038-0.396 1.434 0l6.096 6.097 6.097-6.097c0.396-0.396 1.038-0.396 1.435 0l2.151 2.152c0.396 0.396 0.396 1.038 0 1.435l-6.096 6.096z"></path>
</symbol>
<symbol id="icon-position" viewBox="0 0 32 32">
<path d="M16.5 24.447v-0.996c3.352 0.099 5.993 1.174 5.993 2.487 0 1.379-2.906 2.56-6.492 2.56s-6.492-1.181-6.492-2.56c0-1.313 2.641-2.389 5.992-2.487v0.996c-2.799 0.069-4.993 0.71-4.993 1.491 0 0.827 2.459 1.623 5.493 1.623 3.033 0 5.492-0.796 5.492-1.623-0.001-0.781-2.194-1.421-4.993-1.491zM10.516 8.995c0-3.033 2.521-5.493 5.556-5.493 3.034 0 5.493 2.46 5.493 5.493 0 2.607-1.818 4.786-4.256 5.348l-1.309 13.219-1.313-13.256c-2.362-0.615-4.171-2.756-4.171-5.311zM16 7.524c0-0.828-0.671-1.498-1.498-1.498s-1.499 0.67-1.499 1.498c0 0.827 0.671 1.498 1.499 1.498s1.498-0.67 1.498-1.498z"></path>
</symbol>
<symbol id="icon-trashcan" viewBox="0 0 32 32">
<path d="M8 26c0 1.656 1.343 3 3 3h10c1.656 0 3-1.344 3-3l2-16h-20l2 16zM19 13h2v13h-2v-13zM15 13h2v13h-2v-13zM11 13h2v13h-2v-13zM25.5 6h-6.5c0 0-0.448-2-1-2h-4c-0.553 0-1 2-1 2h-6.5c-0.829 0-1.5 0.671-1.5 1.5s0 1.5 0 1.5h22c0 0 0-0.671 0-1.5s-0.672-1.5-1.5-1.5z"></path>
</symbol>
<symbol id="icon-3dglasses" viewBox="0 0 45 32">
<path d="M13.428 8.050c1.715 0 2.144 0.857 3.286 0.714 1.143-0.143 0.143-2.143-0.857-3.571s-3.285-0.714-5 0.286c-1.714 1-10.821 6.536-10.821 6.536h7.964c0-0.001 3.714-3.965 5.428-3.965zM0 13.049v13c0 1.104 0.895 2 2 2 0 0 7.71 0 16.083 0 1.502 0 2.875-4.667 4.417-4.667 1.339 0 2.346 4.667 3.666 4.667 8.893 0 16.833 0 16.833 0 1.105 0 2.001-0.896 2.001-2v-13h-45zM18 22.050c0 1.656-1.344 3-3 3h-9c-1.657 0-3-1.344-3-3v-3c0-1.657 1.343-3 3-3h9c1.656 0 3 1.343 3 3v3zM42 22.050c0 1.656-1.344 3-3 3h-9c-1.657 0-3-1.344-3-3v-3c0-1.657 1.343-3 3-3h9c1.656 0 3 1.343 3 3v3zM28.285 8.764c1.143 0.143 1.571-0.714 3.286-0.714s5.429 3.964 5.429 3.964h7.964c0 0-9.107-5.536-10.821-6.536-1.715-1-4-1.714-5-0.286s-2 3.429-0.858 3.572z"></path>
</symbol>
<symbol id="icon-satellite" viewBox="0 0 33 32">
<path d="M0 20.863l11.137 11.137c0 0 2.659-6.311-1.083-10.053-3.701-3.701-10.054-1.084-10.054-1.084zM29.875 21.748l-5.656 5.656 0.707 0.707 5.656-5.656-0.707-0.707zM32.703 23.162l-6.363-6.365c-0.781-0.779-2.049-0.779-2.828 0l-0.558 0.558-1.56-1.56 2.797-2.797c0.781-0.781 0.693-2.136-0.088-2.917l-3.447-3.447c-0.781-0.781-2.047-0.781-2.828 0l-2.543 2.454-1.34-1.34 0.091-0.090c0.781-0.781 0.781-2.048 0-2.829l-6.364-6.365c-0.781-0.781-2.047-0.781-2.829 0l-4.242 4.243c-0.781 0.781-0.781 2.048 0 2.829l6.364 6.364c0.781 0.781 2.047 0.781 2.829 0l1.391-1.391 1.378 1.39-2.559 2.559c-0.781 0.781-0.486 5.128-0.486 5.128l1.723 1.723c0 0 4.346 0.295 5.127-0.486l2.214-2.213 1.56 1.56-0.874 0.874c-0.781 0.781-0.781 2.047 0 2.828l6.365 6.363c0.781 0.781 2.047 0.781 2.828 0l4.242-4.242c0.781-0.784 0.781-2.050 0-2.831zM1.308 3.414l4.243-4.243c0.39-0.391 1.023-0.391 1.414 0l-5.657 5.657c-0.391-0.39-0.391-1.024 0-1.414zM2.015 5.535l5.657-5.657 0.707 0.707-5.657 5.657-0.707-0.707zM3.429 6.949l5.657-5.657 0.707 0.708-5.656 5.656-0.708-0.707zM4.844 8.364l5.656-5.657 0.708 0.707-5.657 5.657-0.707-0.707zM6.258 9.778l5.657-5.657 0.707 0.707-5.657 5.657-0.707-0.707zM9.086 11.192c-0.39 0.391-1.023 0.391-1.414 0l5.657-5.657c0.391 0.391 0.391 1.024 0 1.414l-4.243 4.243zM11.908 16.498l-0.53-0.531 7.31-7.31 0.531 0.53-7.311 7.311zM19.975 21.748l4.244-4.244c0.391-0.389 1.023-0.389 1.414 0l-5.658 5.658c-0.391-0.391-0.391-1.023 0-1.414zM31.996 25.283l-4.242 4.242c-0.391 0.391-1.023 0.391-1.414 0l-4.243-4.243 5.656-5.656-0.707-0.707-5.658 5.656-0.707-0.707 5.658-5.658 5.656 5.658c0.392 0.392 0.392 1.025 0.001 1.415zM31.289 23.162l-5.656 5.656 0.707 0.707 5.656-5.656-0.707-0.707zM28.461 20.334l-5.656 5.656 0.707 0.707 5.656-5.656-0.707-0.707z"></path>
</symbol>
<symbol id="icon-key" viewBox="0 0 32 32">
<path d="M17.837 17.542l-10.049 10.049c-0.778 0.778-2.043 0.776-2.824-0.005s-0.783-2.045-0.005-2.823l0.764-0.764-2.165-2.166c-0.391-0.39-0.392-1.022-0.003-1.412 0.39-0.39 1.021-0.388 1.412 0.003l2.166 2.166 0.705-0.705-0.752-0.752c-0.391-0.391-0.392-1.022-0.002-1.412 0.389-0.389 1.021-0.389 1.412 0.002l0.751 0.752 0.705-0.705-2.166-2.166c-0.391-0.391-0.392-1.021-0.002-1.411 0.389-0.39 1.021-0.389 1.412 0.002l2.165 2.166 3.649-3.649c-2.365-3.295-2.659-7.228-0.48-9.406 2.53-2.53 7.431-1.732 10.945 1.783s4.313 8.415 1.782 10.945c-2.181 2.181-6.122 1.882-9.42-0.492zM23.349 9.202c-1.562-1.562-3.618-2.040-4.591-1.066s-0.496 3.028 1.066 4.591c1.562 1.562 3.617 2.039 4.591 1.066s0.495-3.029-1.066-4.591z"></path>
</symbol>
<symbol id="icon-locked" viewBox="0 0 32 32">
<path d="M4 31v-16h3v-5c0-4.418 3.581-8 8-8h1c4.418 0 8 3.582 8 8v5h3v16h-23zM14.744 22.787l-0.744 5.213h3l-0.745-5.213c0.729-0.298 1.245-1.013 1.245-1.85 0-1.104-0.896-2-2-2-1.105 0-2 0.896-2 2 0 0.837 0.515 1.552 1.244 1.85zM21 10.5c0-3.038-2.463-5.5-5.5-5.5-3.038 0-5.5 2.462-5.5 5.5v4.5h11v-4.5z"></path>
</symbol>
<symbol id="icon-unlocked" viewBox="0 0 32 32">
<path d="M29 15v-4.5c0-3.038-2.463-5.5-5.5-5.5-3.038 0-5.5 2.462-5.5 5.5v4.571h5v15.929h-23v-16h15v-5c0-4.418 3.581-8 8-8h1c4.418 0 8 3.582 8 8v5h-3zM11.5 18.938c-1.105 0-2 0.896-2 2 0 0.837 0.515 1.552 1.244 1.85l-0.744 5.212h3l-0.745-5.213c0.729-0.298 1.245-1.013 1.245-1.85 0-1.104-0.896-1.999-2-1.999z"></path>
</symbol>
<symbol id="icon-magnifier" viewBox="0 0 32 32">
<path d="M29.156 29.961l-0.709 0.709c-0.785 0.784-2.055 0.784-2.838 0l-5.676-5.674c-0.656-0.658-0.729-1.644-0.281-2.412l-3.104-3.102c-1.669 1.238-3.728 1.979-5.965 1.979-5.54 0-10.031-4.491-10.031-10.031s4.491-10.032 10.031-10.032c5.541 0 10.031 4.491 10.031 10.032 0 2.579-0.98 4.923-2.58 6.7l3.035 3.035c0.768-0.447 1.754-0.375 2.41 0.283l5.676 5.674c0.784 0.785 0.784 2.056 0.001 2.839zM18.088 11.389c0-4.155-3.369-7.523-7.524-7.523s-7.524 3.367-7.524 7.523 3.368 7.523 7.523 7.523 7.525-3.368 7.525-7.523z"></path>
</symbol>
<symbol id="icon-equalizer" viewBox="0 0 32 32">
<path d="M6 28h3v-9h-3v9zM18 18h-5c-0.553 0-1 0.447-1 1v3c0 0.552 0.447 1 1 1h5c0.552 0 1-0.448 1-1v-3c0-0.553-0.448-1-1-1zM14.031 21.969h-1v-2.938h1v2.938zM15.969 21.969h-1v-2.938h1v2.938zM18.031 21.969h-1v-2.938h1v2.938zM17 4h-3v13h3v-13zM25 4h-3v5h3v-5zM9 4h-3v8h3v-8zM22 28h3v-12h-3v12zM14 28h3v-4h-3v4zM10 13h-5c-0.553 0-1 0.447-1 1v3c0 0.552 0.447 1 1 1h5c0.552 0 1-0.448 1-1v-3c0-0.553-0.448-1-1-1zM6.031 16.969h-1v-2.938h1v2.938zM8.031 16.969h-1v-2.938h1v2.938zM10.031 16.969h-1v-2.938h1v2.938zM26 10h-5c-0.553 0-1 0.447-1 1v3c0 0.552 0.447 1 1 1h5c0.552 0 1-0.448 1-1v-3c0-0.553-0.448-1-1-1zM22.031 13.969h-1v-2.938h1v2.938zM23.969 13.969h-1v-2.938h1v2.938zM26.031 13.969h-1v-2.938h1v2.938z"></path>
</symbol>
<symbol id="icon-edit" viewBox="0 0 32 32">
<path d="M10.681 18.207l-2.209 5.67 5.572-2.307-3.363-3.363zM26.855 6.097l-0.707-0.707c-0.78-0.781-2.047-0.781-2.828 0l-1.414 1.414 3.535 3.536 1.414-1.414c0.782-0.781 0.782-2.048 0-2.829zM10.793 17.918l0.506-0.506 3.535 3.535 9.9-9.9-3.535-3.535 0.707-0.708-11.113 11.114zM23.004 26.004l-17.026 0.006 0.003-17.026 11.921-0.004 1.868-1.98h-14.805c-0.552 0-1 0.447-1 1v19c0 0.553 0.448 1 1 1h19c0.553 0 1-0.447 1-1v-14.058l-2.015 1.977 0.054 11.085z"></path>
</symbol>
<symbol id="icon-ticket" viewBox="0 0 40 32">
<path d="M40 19.438v5.562c0 1.104-0.896 2-2 2h-5.5c0.276 0 0.5-0.224 0.5-0.5s-0.224-0.5-0.5-0.5-0.5 0.224-0.5 0.5 0.224 0.5 0.5 0.5h-30.5c-1.104 0-2-0.896-2-2v-5.5c1.656 0 3-1.344 3-3 0-1.657-1.344-3-3-3v-5.5c0-1.104 0.896-2 2-2h30.5c-0.276 0-0.5 0.224-0.5 0.5s0.224 0.5 0.5 0.5 0.5-0.224 0.5-0.5-0.224-0.5-0.5-0.5h5.5c1.104 0 2 0.896 2 2v5.438c-1.657 0-3 1.343-3 3 0 1.656 1.343 3 3 3zM8.818 13.988h-0.716l-1.922 5.012h0.703l0.55-1.52h2.097l0.583 1.52h0.756l-2.051-5.012zM15.935 15.275c-0.131-0.348-0.329-0.633-0.593-0.856-0.203-0.173-0.448-0.293-0.735-0.359-0.205-0.048-0.503-0.071-0.893-0.071h-1.727v5.011h1.809c0.304 0 0.571-0.028 0.806-0.086 0.233-0.057 0.433-0.141 0.598-0.251s0.318-0.262 0.457-0.454c0.139-0.193 0.253-0.437 0.342-0.73s0.134-0.631 0.134-1.012c-0.001-0.447-0.067-0.844-0.198-1.192zM21.82 13.988h-0.895l-1.203 3.486c-0.121 0.354-0.211 0.621-0.268 0.803-0.051-0.164-0.131-0.411-0.24-0.741l-1.188-3.548h-0.996v5.012h0.641v-4.266l1.448 4.266h0.599l1.462-4.195v4.195h0.641v-5.012zM23.667 13.988h-0.664v5.012h0.664v-5.012zM28.607 13.988h-3.973v0.59h1.652v4.422h0.664v-4.422h1.656v-0.59zM32.5 8c-0.276 0-0.5 0.224-0.5 0.5s0.224 0.5 0.5 0.5 0.5-0.224 0.5-0.5-0.224-0.5-0.5-0.5zM32.5 10c-0.276 0-0.5 0.224-0.5 0.5s0.224 0.5 0.5 0.5 0.5-0.224 0.5-0.5-0.224-0.5-0.5-0.5zM32.5 12c-0.276 0-0.5 0.224-0.5 0.5s0.224 0.5 0.5 0.5 0.5-0.224 0.5-0.5-0.224-0.5-0.5-0.5zM32.5 14c-0.276 0-0.5 0.224-0.5 0.5s0.224 0.5 0.5 0.5 0.5-0.224 0.5-0.5-0.224-0.5-0.5-0.5zM32.5 16c-0.276 0-0.5 0.224-0.5 0.5s0.224 0.5 0.5 0.5 0.5-0.224 0.5-0.5-0.224-0.5-0.5-0.5zM32.5 18c-0.276 0-0.5 0.224-0.5 0.5s0.224 0.5 0.5 0.5 0.5-0.224 0.5-0.5-0.224-0.5-0.5-0.5zM32.5 20c-0.276 0-0.5 0.224-0.5 0.5s0.224 0.5 0.5 0.5 0.5-0.224 0.5-0.5-0.224-0.5-0.5-0.5zM32.5 22c-0.276 0-0.5 0.224-0.5 0.5s0.224 0.5 0.5 0.5 0.5-0.224 0.5-0.5-0.224-0.5-0.5-0.5zM32.5 24c-0.276 0-0.5 0.224-0.5 0.5s0.224 0.5 0.5 0.5 0.5-0.224 0.5-0.5-0.224-0.5-0.5-0.5zM14.949 18.058c-0.112 0.111-0.262 0.198-0.45 0.26s-0.447 0.093-0.777 0.093h-1.070v-3.832h1.053c0.395 0 0.681 0.034 0.858 0.103 0.246 0.096 0.455 0.284 0.627 0.566s0.259 0.685 0.259 1.209c0 0.379-0.044 0.701-0.132 0.967s-0.212 0.476-0.368 0.634zM8.172 15.473c0.116-0.317 0.206-0.637 0.271-0.957 0.078 0.271 0.197 0.617 0.357 1.038l0.521 1.388h-1.697l0.548-1.469z"></path>
</symbol>
<symbol id="icon-checked" viewBox="0 0 32 32">
<path d="M26.5 27h-3c-0.276 0-0.5-0.224-0.5-0.5s0.224-0.5 0.5-0.5h2.5v-2.5c0-0.276 0.224-0.5 0.5-0.5 0.275 0 0.5 0.224 0.5 0.5v3c0 0.276-0.225 0.5-0.5 0.5zM26.5 21c-0.276 0-0.5-0.224-0.5-0.5v-3c0-0.276 0.224-0.5 0.5-0.5 0.275 0 0.5 0.224 0.5 0.5v3c0 0.276-0.225 0.5-0.5 0.5zM26.5 15c-0.276 0-0.5-0.224-0.5-0.5v-3c0-0.276 0.224-0.5 0.5-0.5 0.275 0 0.5 0.224 0.5 0.5v3c0 0.276-0.225 0.5-0.5 0.5zM26.5 9c-0.276 0-0.5-0.224-0.5-0.5v-2.5h-2.5c-0.276 0-0.5-0.224-0.5-0.5s0.224-0.5 0.5-0.5h3c0.275 0 0.5 0.224 0.5 0.5v3c0 0.276-0.225 0.5-0.5 0.5zM14.666 21.053c-0.184 0.185-0.483 0.185-0.668 0l-1.002-1.002c-0.002-0.003-0.001-0.007-0.003-0.009l-3.188-3.212c-0.185-0.184-0.185-0.483 0-0.668l1.002-1.003c0.185-0.185 0.484-0.185 0.669 0l2.86 2.881 6.014-6.013c0.184-0.185 0.483-0.185 0.668 0l1.002 1.003c0.186 0.185 0.186 0.484 0 0.669l-7.354 7.354zM20.5 6h-3c-0.276 0-0.5-0.224-0.5-0.5s0.224-0.5 0.5-0.5h3c0.275 0 0.5 0.224 0.5 0.5s-0.225 0.5-0.5 0.5zM14.5 6h-3c-0.276 0-0.5-0.224-0.5-0.5s0.224-0.5 0.5-0.5h3c0.275 0 0.5 0.224 0.5 0.5s-0.225 0.5-0.5 0.5zM8.5 27h-3c-0.276 0-0.5-0.224-0.5-0.5v-3c0-0.276 0.224-0.5 0.5-0.5s0.5 0.224 0.5 0.5v2.5h2.5c0.276 0 0.5 0.224 0.5 0.5s-0.224 0.5-0.5 0.5zM8.5 6h-2.5v2.5c0 0.276-0.224 0.5-0.5 0.5s-0.5-0.224-0.5-0.5v-3c0-0.276 0.224-0.5 0.5-0.5h3c0.276 0 0.5 0.224 0.5 0.5s-0.224 0.5-0.5 0.5zM5.5 11c0.276 0 0.5 0.224 0.5 0.5v3c0 0.276-0.224 0.5-0.5 0.5s-0.5-0.224-0.5-0.5v-3c0-0.276 0.224-0.5 0.5-0.5zM5.5 17c0.276 0 0.5 0.224 0.5 0.5v3c0 0.276-0.224 0.5-0.5 0.5s-0.5-0.224-0.5-0.5v-3c0-0.276 0.224-0.5 0.5-0.5zM11.5 26h3c0.275 0 0.5 0.224 0.5 0.5s-0.225 0.5-0.5 0.5h-3c-0.276 0-0.5-0.224-0.5-0.5s0.224-0.5 0.5-0.5zM17.5 26h3c0.275 0 0.5 0.224 0.5 0.5s-0.225 0.5-0.5 0.5h-3c-0.276 0-0.5-0.224-0.5-0.5s0.224-0.5 0.5-0.5z"></path>
</symbol>
<symbol id="icon-error" viewBox="0 0 32 32">
<path d="M26.5 27h-3c-0.276 0-0.5-0.224-0.5-0.5s0.224-0.5 0.5-0.5h2.5v-2.5c0-0.276 0.224-0.5 0.5-0.5 0.275 0 0.5 0.224 0.5 0.5v3c0 0.276-0.225 0.5-0.5 0.5zM26.5 21c-0.276 0-0.5-0.224-0.5-0.5v-3c0-0.276 0.224-0.5 0.5-0.5 0.275 0 0.5 0.224 0.5 0.5v3c0 0.276-0.225 0.5-0.5 0.5zM26.5 15c-0.276 0-0.5-0.224-0.5-0.5v-3c0-0.276 0.224-0.5 0.5-0.5 0.275 0 0.5 0.224 0.5 0.5v3c0 0.276-0.225 0.5-0.5 0.5zM26.5 9c-0.276 0-0.5-0.224-0.5-0.5v-2.5h-2.5c-0.276 0-0.5-0.224-0.5-0.5s0.224-0.5 0.5-0.5h3c0.275 0 0.5 0.224 0.5 0.5v3c0 0.276-0.225 0.5-0.5 0.5zM20.5 27h-3c-0.276 0-0.5-0.224-0.5-0.5s0.224-0.5 0.5-0.5h3c0.275 0 0.5 0.224 0.5 0.5s-0.225 0.5-0.5 0.5zM20.5 6h-3c-0.276 0-0.5-0.224-0.5-0.5s0.224-0.5 0.5-0.5h3c0.275 0 0.5 0.224 0.5 0.5s-0.225 0.5-0.5 0.5zM14.5 6h-3c-0.276 0-0.5-0.224-0.5-0.5s0.224-0.5 0.5-0.5h3c0.275 0 0.5 0.224 0.5 0.5s-0.225 0.5-0.5 0.5zM8.5 27h-3c-0.276 0-0.5-0.224-0.5-0.5v-3c0-0.276 0.224-0.5 0.5-0.5s0.5 0.224 0.5 0.5v2.5h2.5c0.276 0 0.5 0.224 0.5 0.5s-0.224 0.5-0.5 0.5zM8.5 6h-2.5v2.5c0 0.276-0.224 0.5-0.5 0.5s-0.5-0.224-0.5-0.5v-3c0-0.276 0.224-0.5 0.5-0.5h3c0.276 0 0.5 0.224 0.5 0.5s-0.224 0.5-0.5 0.5zM5.5 11c0.276 0 0.5 0.224 0.5 0.5v3c0 0.276-0.224 0.5-0.5 0.5s-0.5-0.224-0.5-0.5v-3c0-0.276 0.224-0.5 0.5-0.5zM5.5 17c0.276 0 0.5 0.224 0.5 0.5v3c0 0.276-0.224 0.5-0.5 0.5s-0.5-0.224-0.5-0.5v-3c0-0.276 0.224-0.5 0.5-0.5zM20.736 19.723l-1.014 1.014c-0.186 0.187-0.488 0.187-0.675 0l-2.87-2.87-2.87 2.87c-0.187 0.187-0.488 0.187-0.675 0l-1.013-1.014c-0.187-0.187-0.187-0.488 0-0.675l2.871-2.87-2.871-2.87c-0.187-0.186-0.187-0.488 0-0.675l1.013-1.013c0.187-0.187 0.488-0.187 0.675 0l2.87 2.87 2.87-2.87c0.187-0.187 0.489-0.187 0.675 0l1.014 1.013c0.186 0.187 0.186 0.489 0 0.675l-2.871 2.87 2.871 2.87c0.186 0.186 0.186 0.488 0 0.675zM11.5 26h3c0.275 0 0.5 0.224 0.5 0.5s-0.225 0.5-0.5 0.5h-3c-0.276 0-0.5-0.224-0.5-0.5s0.224-0.5 0.5-0.5z"></path>
</symbol>
<symbol id="icon-add" viewBox="0 0 32 32">
<path d="M26.5 27h-3c-0.276 0-0.5-0.224-0.5-0.5s0.224-0.5 0.5-0.5h2.5v-2.5c0-0.276 0.224-0.5 0.5-0.5 0.275 0 0.5 0.224 0.5 0.5v3c0 0.276-0.225 0.5-0.5 0.5zM26.5 21c-0.276 0-0.5-0.224-0.5-0.5v-3c0-0.276 0.224-0.5 0.5-0.5 0.275 0 0.5 0.224 0.5 0.5v3c0 0.276-0.225 0.5-0.5 0.5zM26.5 15c-0.276 0-0.5-0.224-0.5-0.5v-3c0-0.276 0.224-0.5 0.5-0.5 0.275 0 0.5 0.224 0.5 0.5v3c0 0.276-0.225 0.5-0.5 0.5zM26.5 9c-0.276 0-0.5-0.224-0.5-0.5v-2.5h-2.5c-0.276 0-0.5-0.224-0.5-0.5s0.224-0.5 0.5-0.5h3c0.275 0 0.5 0.224 0.5 0.5v3c0 0.276-0.225 0.5-0.5 0.5zM20.5 27h-3c-0.276 0-0.5-0.224-0.5-0.5s0.224-0.5 0.5-0.5h3c0.275 0 0.5 0.224 0.5 0.5s-0.225 0.5-0.5 0.5zM20.5 6h-3c-0.276 0-0.5-0.224-0.5-0.5s0.224-0.5 0.5-0.5h3c0.275 0 0.5 0.224 0.5 0.5s-0.225 0.5-0.5 0.5zM19.938 15c0.552 0 1 0.447 1 1 0 0.552-0.448 1-1 1h-3v3c0 0.552-0.448 1-1 1-0.553 0-1-0.448-1-1v-3h-3c-0.552 0-1-0.448-1-1 0-0.553 0.447-1 1-1h3v-3c0-0.553 0.447-1 1-1 0.552 0 1 0.447 1 1v3h3zM14.5 6h-3c-0.276 0-0.5-0.224-0.5-0.5s0.224-0.5 0.5-0.5h3c0.275 0 0.5 0.224 0.5 0.5s-0.225 0.5-0.5 0.5zM8.5 27h-3c-0.276 0-0.5-0.224-0.5-0.5v-3c0-0.276 0.224-0.5 0.5-0.5s0.5 0.224 0.5 0.5v2.5h2.5c0.276 0 0.5 0.224 0.5 0.5s-0.224 0.5-0.5 0.5zM8.5 6h-2.5v2.5c0 0.276-0.224 0.5-0.5 0.5s-0.5-0.224-0.5-0.5v-3c0-0.276 0.224-0.5 0.5-0.5h3c0.276 0 0.5 0.224 0.5 0.5s-0.224 0.5-0.5 0.5zM5.5 11c0.276 0 0.5 0.224 0.5 0.5v3c0 0.276-0.224 0.5-0.5 0.5s-0.5-0.224-0.5-0.5v-3c0-0.276 0.224-0.5 0.5-0.5zM5.5 17c0.276 0 0.5 0.224 0.5 0.5v3c0 0.276-0.224 0.5-0.5 0.5s-0.5-0.224-0.5-0.5v-3c0-0.276 0.224-0.5 0.5-0.5zM11.5 26h3c0.275 0 0.5 0.224 0.5 0.5s-0.225 0.5-0.5 0.5h-3c-0.276 0-0.5-0.224-0.5-0.5s0.224-0.5 0.5-0.5z"></path>
</symbol>
<symbol id="icon-minus" viewBox="0 0 32 32">
<path d="M8.5 5h-3c-0.276 0-0.5 0.224-0.5 0.5v3c0 0.276 0.224 0.5 0.5 0.5s0.5-0.224 0.5-0.5v-2.5h2.5c0.276 0 0.5-0.224 0.5-0.5s-0.224-0.5-0.5-0.5zM11.5 6h3c0.275 0 0.5-0.224 0.5-0.5s-0.225-0.5-0.5-0.5h-3c-0.276 0-0.5 0.224-0.5 0.5s0.224 0.5 0.5 0.5zM20.5 5h-3c-0.276 0-0.5 0.224-0.5 0.5s0.224 0.5 0.5 0.5h3c0.275 0 0.5-0.224 0.5-0.5s-0.225-0.5-0.5-0.5zM26.5 5h-3c-0.276 0-0.5 0.224-0.5 0.5s0.224 0.5 0.5 0.5h2.5v2.5c0 0.276 0.224 0.5 0.5 0.5 0.275 0 0.5-0.224 0.5-0.5v-3c0-0.276-0.225-0.5-0.5-0.5zM26.5 11c-0.276 0-0.5 0.224-0.5 0.5v3c0 0.276 0.224 0.5 0.5 0.5 0.275 0 0.5-0.224 0.5-0.5v-3c0-0.276-0.225-0.5-0.5-0.5zM26.5 17c-0.276 0-0.5 0.224-0.5 0.5v3c0 0.276 0.224 0.5 0.5 0.5 0.275 0 0.5-0.224 0.5-0.5v-3c0-0.276-0.225-0.5-0.5-0.5zM26.5 23c-0.276 0-0.5 0.224-0.5 0.5v2.5h-2.5c-0.276 0-0.5 0.224-0.5 0.5s0.224 0.5 0.5 0.5h3c0.275 0 0.5-0.224 0.5-0.5v-3c0-0.276-0.225-0.5-0.5-0.5zM20.5 26h-3c-0.276 0-0.5 0.224-0.5 0.5s0.224 0.5 0.5 0.5h3c0.275 0 0.5-0.224 0.5-0.5s-0.225-0.5-0.5-0.5zM14.5 26h-3c-0.276 0-0.5 0.224-0.5 0.5s0.224 0.5 0.5 0.5h3c0.275 0 0.5-0.224 0.5-0.5s-0.225-0.5-0.5-0.5zM8.5 26h-2.5v-2.5c0-0.276-0.224-0.5-0.5-0.5s-0.5 0.224-0.5 0.5v3c0 0.276 0.224 0.5 0.5 0.5h3c0.276 0 0.5-0.224 0.5-0.5s-0.224-0.5-0.5-0.5zM5.5 21c0.276 0 0.5-0.224 0.5-0.5v-3c0-0.276-0.224-0.5-0.5-0.5s-0.5 0.224-0.5 0.5v3c0 0.276 0.224 0.5 0.5 0.5zM5.5 15c0.276 0 0.5-0.224 0.5-0.5v-3c0-0.276-0.224-0.5-0.5-0.5s-0.5 0.224-0.5 0.5v3c0 0.276 0.224 0.5 0.5 0.5zM11.938 17h8c0.553 0 1-0.448 1-1 0-0.553-0.447-1-1-1h-8c-0.553 0-1 0.447-1 1 0 0.552 0.447 1 1 1z"></path>
</symbol>
<symbol id="icon-pictures" viewBox="0 0 32 32">
<path d="M28 8v16c0 1.104-0.896 2-2 2h-21c0 1.104 0.896 2 2 2h21c1.104 0 2-0.896 2-2v-16c0-1.104-0.896-2-2-2zM27 23v-16c0-1.104-0.896-2-2-2h-21c-1.104 0-2 0.896-2 2v16c0 1.104 0.896 2 2 2h21c1.104 0 2-0.896 2-2zM4 7h21v16h-21v-16zM15.627 17.311l-2.988-3.181-2.989 5.104-2.242-2.343-2.429 5.129h19.055l-4.297-11.245-4.11 6.536zM8 14c1.104 0 2-0.896 2-2s-0.896-2-2-2-2 0.896-2 2 0.896 2 2 2z"></path>
</symbol>
<symbol id="icon-zip" viewBox="0 0 32 32">
<path d="M17 24.938h-4v-7h4v7zM16 21.938h-2v2h2v-2zM17 17h-2v-2h2v2zM13 15v-2h2v2h-2zM13 9h2v2h-2v-2zM13 5h2v2h-2v-2zM17 7v2h-2v-2h2zM17 11v2h-2v-2h2zM5 30v-27h15v1.991h-13v23.018h17.018v-19.009h1.982v21h-21zM21 3h0.123l4.877 4.876v0.062h-5v-4.938z"></path>
</symbol>
<symbol id="icon-sign-out" viewBox="0 0 25 28">
<path d="M10 22.5c0 0.438 0.203 1.5-0.5 1.5h-5c-2.484 0-4.5-2.016-4.5-4.5v-11c0-2.484 2.016-4.5 4.5-4.5h5c0.266 0 0.5 0.234 0.5 0.5 0 0.438 0.203 1.5-0.5 1.5h-5c-1.375 0-2.5 1.125-2.5 2.5v11c0 1.375 1.125 2.5 2.5 2.5h4.5c0.391 0 1-0.078 1 0.5zM24.5 14c0 0.266-0.109 0.516-0.297 0.703l-8.5 8.5c-0.187 0.187-0.438 0.297-0.703 0.297-0.547 0-1-0.453-1-1v-4.5h-7c-0.547 0-1-0.453-1-1v-6c0-0.547 0.453-1 1-1h7v-4.5c0-0.547 0.453-1 1-1 0.266 0 0.516 0.109 0.703 0.297l8.5 8.5c0.187 0.187 0.297 0.438 0.297 0.703z"></path>
</symbol>
<symbol id="icon-id-card" viewBox="0 0 32 28">
<path d="M14 18.937c0-2.063-0.5-4.438-2.562-4.438-0.625 0.625-1.484 1-2.438 1s-1.813-0.375-2.438-1c-2.063 0-2.562 2.375-2.562 4.438 0 1.141 0.75 2.063 1.672 2.063h6.656c0.922 0 1.672-0.922 1.672-2.063zM12 12c0-1.656-1.344-3-3-3s-3 1.344-3 3 1.344 3 3 3 3-1.344 3-3zM28 19.5v-1c0-0.281-0.219-0.5-0.5-0.5h-11c-0.281 0-0.5 0.219-0.5 0.5v1c0 0.281 0.219 0.5 0.5 0.5h11c0.281 0 0.5-0.219 0.5-0.5zM22 15.5v-1c0-0.281-0.219-0.5-0.5-0.5h-5c-0.281 0-0.5 0.219-0.5 0.5v1c0 0.281 0.219 0.5 0.5 0.5h5c0.281 0 0.5-0.219 0.5-0.5zM28 15.5v-1c0-0.281-0.219-0.5-0.5-0.5h-3c-0.281 0-0.5 0.219-0.5 0.5v1c0 0.281 0.219 0.5 0.5 0.5h3c0.281 0 0.5-0.219 0.5-0.5zM28 11.5v-1c0-0.281-0.219-0.5-0.5-0.5h-11c-0.281 0-0.5 0.219-0.5 0.5v1c0 0.281 0.219 0.5 0.5 0.5h11c0.281 0 0.5-0.219 0.5-0.5zM2 6h28v-1.5c0-0.281-0.219-0.5-0.5-0.5h-27c-0.281 0-0.5 0.219-0.5 0.5v1.5zM32 4.5v19c0 1.375-1.125 2.5-2.5 2.5h-27c-1.375 0-2.5-1.125-2.5-2.5v-19c0-1.375 1.125-2.5 2.5-2.5h27c1.375 0 2.5 1.125 2.5 2.5z"></path>
</symbol>
<symbol id="icon-id-card-o" viewBox="0 0 32 28">
<path d="M14 18.937c0 1.141-0.75 2.063-1.672 2.063h-6.656c-0.922 0-1.672-0.922-1.672-2.063 0-2.063 0.5-4.438 2.562-4.438 0.625 0.625 1.484 1 2.438 1s1.813-0.375 2.438-1c2.063 0 2.562 2.375 2.562 4.438zM12 12c0 1.656-1.344 3-3 3s-3-1.344-3-3 1.344-3 3-3 3 1.344 3 3zM28 18.5v1c0 0.281-0.219 0.5-0.5 0.5h-11c-0.281 0-0.5-0.219-0.5-0.5v-1c0-0.281 0.219-0.5 0.5-0.5h11c0.281 0 0.5 0.219 0.5 0.5zM22 14.5v1c0 0.281-0.219 0.5-0.5 0.5h-5c-0.281 0-0.5-0.219-0.5-0.5v-1c0-0.281 0.219-0.5 0.5-0.5h5c0.281 0 0.5 0.219 0.5 0.5zM28 14.5v1c0 0.281-0.219 0.5-0.5 0.5h-3c-0.281 0-0.5-0.219-0.5-0.5v-1c0-0.281 0.219-0.5 0.5-0.5h3c0.281 0 0.5 0.219 0.5 0.5zM28 10.5v1c0 0.281-0.219 0.5-0.5 0.5h-11c-0.281 0-0.5-0.219-0.5-0.5v-1c0-0.281 0.219-0.5 0.5-0.5h11c0.281 0 0.5 0.219 0.5 0.5zM30 23.5v-17.5h-28v17.5c0 0.266 0.234 0.5 0.5 0.5h27c0.266 0 0.5-0.234 0.5-0.5zM32 4.5v19c0 1.375-1.125 2.5-2.5 2.5h-27c-1.375 0-2.5-1.125-2.5-2.5v-19c0-1.375 1.125-2.5 2.5-2.5h27c1.375 0 2.5 1.125 2.5 2.5z"></path>
</symbol>
<symbol id="icon-user-circle" viewBox="0 0 28 28">
<path d="M23.797 20.922c-0.406-2.922-1.594-5.516-4.25-5.875-1.375 1.5-3.359 2.453-5.547 2.453s-4.172-0.953-5.547-2.453c-2.656 0.359-3.844 2.953-4.25 5.875 2.172 3.063 5.75 5.078 9.797 5.078s7.625-2.016 9.797-5.078zM20 10c0-3.313-2.688-6-6-6s-6 2.688-6 6 2.688 6 6 6 6-2.688 6-6zM28 14c0 7.703-6.25 14-14 14-7.734 0-14-6.281-14-14 0-7.734 6.266-14 14-14s14 6.266 14 14z"></path>
</symbol>
<symbol id="icon-newspaper" viewBox="0 0 32 32">
<path d="M28 8v-4h-28v22c0 1.105 0.895 2 2 2h27c1.657 0 3-1.343 3-3v-17h-4zM26 26h-24v-20h24v20zM4 10h20v2h-20zM16 14h8v2h-8zM16 18h8v2h-8zM16 22h6v2h-6zM4 14h10v10h-10z"></path>
</symbol>
<symbol id="icon-users" viewBox="0 0 36 32">
<path d="M24 24.082v-1.649c2.203-1.241 4-4.337 4-7.432 0-4.971 0-9-6-9s-6 4.029-6 9c0 3.096 1.797 6.191 4 7.432v1.649c-6.784 0.555-12 3.888-12 7.918h28c0-4.030-5.216-7.364-12-7.918z"></path>
<path d="M10.225 24.854c1.728-1.13 3.877-1.989 6.243-2.513-0.47-0.556-0.897-1.176-1.265-1.844-0.95-1.726-1.453-3.627-1.453-5.497 0-2.689 0-5.228 0.956-7.305 0.928-2.016 2.598-3.265 4.976-3.734-0.529-2.39-1.936-3.961-5.682-3.961-6 0-6 4.029-6 9 0 3.096 1.797 6.191 4 7.432v1.649c-6.784 0.555-12 3.888-12 7.918h8.719c0.454-0.403 0.956-0.787 1.506-1.146z"></path>
</symbol>
</defs>
</svg>
